Playfair Display-Regular.ufo
<glyph name="E-cy" format="1">
  <advance width="691"/>
  <unicode hex="0404"/>
  <outline>
    <contour>
      <point x="185" y="722"/>
      <point x="53" y="572"/>
      <point x="53" y="348" type="curve" smooth="yes"/>
      <point x="53" y="119"/>
      <point x="180" y="-14"/>
      <point x="370" y="-14" type="curve" smooth="yes"/>
      <point x="456" y="-14"/>
      <point x="506" y="16"/>
      <point x="555" y="51" type="curve" smooth="yes"/>
      <point x="584" y="70"/>
      <point x="595" y="57"/>
      <point x="600" y="0" type="curve"/>
      <point x="623" y="0" type="line"/>
      <point x="620" y="51"/>
      <point x="619" y="119"/>
      <point x="619" y="240" type="curve"/>
      <point x="596" y="240" type="line"/>
      <point x="586" y="159"/>
      <point x="579" y="121"/>
      <point x="550" y="82" type="curve" smooth="yes"/>
      <point x="512" y="28"/>
      <point x="439" y="6"/>
      <point x="379" y="6" type="curve" smooth="yes"/>
      <point x="250" y="6"/>
      <point x="153" y="129"/>
      <point x="153" y="352" type="curve" smooth="yes"/>
      <point x="153" y="569"/>
      <point x="239" y="704"/>
      <point x="369" y="704" type="curve" smooth="yes"/>
      <point x="438" y="704"/>
      <point x="504" y="680"/>
      <point x="546" y="626" type="curve" smooth="yes"/>
      <point x="574" y="590"/>
      <point x="582" y="563"/>
      <point x="596" y="478" type="curve"/>
      <point x="619" y="478" type="line"/>
      <point x="619" y="594"/>
      <point x="620" y="659"/>
      <point x="623" y="708" type="curve"/>
      <point x="600" y="708" type="line"/>
      <point x="595" y="651"/>
      <point x="581" y="637"/>
      <point x="555" y="657" type="curve" smooth="yes"/>
      <point x="511" y="691"/>
      <point x="459" y="722"/>
      <point x="371" y="722" type="curve" smooth="yes"/>
    </contour>
    <contour>
      <point x="217" y="429"/>
      <point x="161" y="392"/>
      <point x="143" y="318" type="curve"/>
      <point x="150" y="313" type="line"/>
      <point x="168" y="356"/>
      <point x="201" y="371"/>
      <point x="237" y="371" type="curve" smooth="yes"/>
      <point x="325" y="371"/>
      <point x="372" y="289"/>
      <point x="468" y="289" type="curve"/>
      <point x="535" y="289"/>
      <point x="595" y="326"/>
      <point x="615" y="400" type="curve"/>
      <point x="599" y="407" type="line"/>
      <point x="584" y="364"/>
      <point x="547" y="347"/>
      <point x="510" y="347" type="curve" smooth="yes"/>
      <point x="425" y="347"/>
      <point x="374" y="429"/>
      <point x="281" y="429" type="curve" smooth="yes"/>
    </contour>
  </outline>
</glyph>
<glyph name="I-cy" format="1">
  <advance width="339"/>
  <unicode hex="0406"/>
  <outline>
    <component base="I"/>
    <contour>
      <point x="170" y="708" type="move" name="top"/>
    </contour>
  </outline>
</glyph>
<glyph name="Tshe-cy" format="1">
  <advance width="835"/>
  <unicode hex="040B"/>
  <outline>
    <contour>
      <point x="486" y="416"/>
      <point x="401" y="382"/>
      <point x="357" y="328" type="curve"/>
      <point x="357" y="302" type="line"/>
      <point x="391" y="348"/>
      <point x="460" y="384"/>
      <point x="542" y="384" type="curve" smooth="yes"/>
      <point x="650" y="384"/>
      <point x="662" y="330"/>
      <point x="662" y="269" type="curve" smooth="yes"/>
      <point x="662" y="93" type="line" smooth="yes"/>
      <point x="662" y="37"/>
      <point x="644" y="21"/>
      <point x="596" y="21" type="curve"/>
      <point x="596" y="0" type="line"/>
      <point x="617" y="1"/>
      <point x="664" y="4"/>
      <point x="708" y="4" type="curve" smooth="yes"/>
      <point x="752" y="4"/>
      <point x="808" y="1"/>
      <point x="831" y="0" type="curve"/>
      <point x="831" y="21" type="line"/>
      <point x="776" y="21"/>
      <point x="755" y="37"/>
      <point x="755" y="93" type="curve" smooth="yes"/>
      <point x="755" y="247" type="line" smooth="yes"/>
      <point x="755" y="312"/>
      <point x="740" y="356"/>
      <point x="699" y="383" type="curve" smooth="yes"/>
      <point x="670" y="402"/>
      <point x="626" y="416"/>
      <point x="568" y="416" type="curve" smooth="yes"/>
    </contour>
    <component base="T"/>
  </outline>
</glyph>
<glyph name="Zhe-cy" format="1">
  <advance width="975"/>
  <unicode hex="0416"/>
  <outline>
    <contour>
      <point x="503" y="376" type="line"/>
      <point x="503" y="357" type="line"/>
      <point x="588" y="357" type="line" smooth="yes"/>
      <point x="682" y="357"/>
      <point x="696" y="301"/>
      <point x="714" y="218" type="curve" smooth="yes"/>
      <point x="742" y="94" type="line" smooth="yes"/>
      <point x="762" y="5"/>
      <point x="802" y="-14"/>
      <point x="849" y="-14" type="curve" smooth="yes"/>
      <point x="905" y="-14"/>
      <point x="930" y="12"/>
      <point x="956" y="50" type="curve"/>
      <point x="941" y="61" type="line"/>
      <point x="923" y="38"/>
      <point x="911" y="24"/>
      <point x="888" y="23" type="curve" smooth="yes"/>
      <point x="859" y="22"/>
      <point x="851" y="44"/>
      <point x="837" y="105" type="curve" smooth="yes"/>
      <point x="808" y="231" type="line" smooth="yes"/>
      <point x="781" y="353"/>
      <point x="693" y="376"/>
      <point x="592" y="376" type="curve" smooth="yes"/>
    </contour>
    <contour>
      <point x="379" y="376" type="line" smooth="yes"/>
      <point x="283" y="376"/>
      <point x="197" y="353"/>
      <point x="171" y="231" type="curve" smooth="yes"/>
      <point x="140" y="105" type="line" smooth="yes"/>
      <point x="126" y="44"/>
      <point x="118" y="22"/>
      <point x="89" y="23" type="curve" smooth="yes"/>
      <point x="66" y="24"/>
      <point x="54" y="38"/>
      <point x="36" y="61" type="curve"/>
      <point x="21" y="50" type="line"/>
      <point x="45" y="12"/>
      <point x="71" y="-14"/>
      <point x="122" y="-14" type="curve" smooth="yes"/>
      <point x="169" y="-14"/>
      <point x="209" y="5"/>
      <point x="229" y="94" type="curve" smooth="yes"/>
      <point x="257" y="218" type="line" smooth="yes"/>
      <point x="275" y="301"/>
      <point x="289" y="357"/>
      <point x="383" y="357" type="curve" smooth="yes"/>
      <point x="468" y="357" type="line"/>
      <point x="468" y="376" type="line"/>
    </contour>
    <contour>
      <point x="69" y="722"/>
      <point x="50" y="695"/>
      <point x="50" y="664" type="curve" smooth="yes"/>
      <point x="50" y="630"/>
      <point x="73" y="607"/>
      <point x="108" y="607" type="curve" smooth="yes"/>
      <point x="144" y="607"/>
      <point x="166" y="631"/>
      <point x="166" y="669" type="curve" smooth="yes"/>
      <point x="166" y="677"/>
      <point x="165" y="683"/>
      <point x="165" y="685" type="curve"/>
      <point x="166" y="684"/>
      <point x="165" y="685"/>
      <point x="169" y="683" type="curve" smooth="yes"/>
      <point x="180" y="678"/>
      <point x="191" y="669"/>
      <point x="197" y="661" type="curve" smooth="yes"/>
      <point x="235" y="612"/>
      <point x="228" y="460"/>
      <point x="290" y="404" type="curve" smooth="yes"/>
      <point x="321" y="376"/>
      <point x="373" y="361"/>
      <point x="443" y="361" type="curve"/>
      <point x="443" y="376" type="line"/>
      <point x="379" y="377"/>
      <point x="323" y="390"/>
      <point x="291" y="431" type="curve" smooth="yes"/>
      <point x="252" y="482"/>
      <point x="254" y="599"/>
      <point x="215" y="668" type="curve" smooth="yes"/>
      <point x="198" y="698"/>
      <point x="171" y="722"/>
      <point x="122" y="722" type="curve" smooth="yes"/>
    </contour>
    <contour>
      <point x="800" y="722"/>
      <point x="773" y="698"/>
      <point x="756" y="668" type="curve" smooth="yes"/>
      <point x="717" y="599"/>
      <point x="719" y="482"/>
      <point x="680" y="431" type="curve" smooth="yes"/>
      <point x="648" y="390"/>
      <point x="592" y="377"/>
      <point x="528" y="376" type="curve"/>
      <point x="528" y="361" type="line"/>
      <point x="598" y="361"/>
      <point x="650" y="376"/>
      <point x="681" y="404" type="curve" smooth="yes"/>
      <point x="743" y="460"/>
      <point x="736" y="612"/>
      <point x="774" y="661" type="curve" smooth="yes"/>
      <point x="780" y="669"/>
      <point x="791" y="678"/>
      <point x="802" y="683" type="curve" smooth="yes"/>
      <point x="806" y="685"/>
      <point x="805" y="684"/>
      <point x="806" y="685" type="curve"/>
      <point x="806" y="683"/>
      <point x="805" y="677"/>
      <point x="805" y="669" type="curve" smooth="yes"/>
      <point x="805" y="631"/>
      <point x="827" y="607"/>
      <point x="863" y="607" type="curve" smooth="yes"/>
      <point x="898" y="607"/>
      <point x="921" y="630"/>
      <point x="921" y="664" type="curve" smooth="yes"/>
      <point x="921" y="695"/>
      <point x="902" y="722"/>
      <point x="849" y="722" type="curve" smooth="yes"/>
    </contour>
    <component base="I" xOffset="316"/>
  </outline>
</glyph>
<glyph name="Ka-cy" format="1">
  <advance width="678"/>
  <unicode hex="041A"/>
  <outline>
    <contour>
      <point x="266" y="706"/>
      <point x="216" y="705"/>
      <point x="170" y="705" type="curve" smooth="yes"/>
      <point x="118" y="705"/>
      <point x="70" y="706"/>
      <point x="42" y="708" type="curve"/>
      <point x="42" y="688" type="line"/>
      <point x="110" y="685"/>
      <point x="123" y="675"/>
      <point x="123" y="602" type="curve" smooth="yes"/>
      <point x="123" y="106" type="line" smooth="yes"/>
      <point x="123" y="33"/>
      <point x="110" y="23"/>
      <point x="42" y="20" type="curve"/>
      <point x="42" y="0" type="line"/>
      <point x="70" y="2"/>
      <point x="118" y="3"/>
      <point x="170" y="3" type="curve" smooth="yes"/>
      <point x="216" y="3"/>
      <point x="266" y="2"/>
      <point x="297" y="0" type="curve"/>
      <point x="297" y="20" type="line"/>
      <point x="229" y="23"/>
      <point x="216" y="33"/>
      <point x="216" y="106" type="curve" smooth="yes"/>
      <point x="216" y="602" type="line" smooth="yes"/>
      <point x="216" y="675"/>
      <point x="229" y="685"/>
      <point x="297" y="688" type="curve"/>
      <point x="297" y="708" type="line"/>
    </contour>
    <contour>
      <point x="508" y="722"/>
      <point x="479" y="701"/>
      <point x="459" y="668" type="curve" smooth="yes"/>
      <point x="412" y="594"/>
      <point x="419" y="490"/>
      <point x="366" y="428" type="curve" smooth="yes"/>
      <point x="332" y="388"/>
      <point x="276" y="377"/>
      <point x="212" y="376" type="curve"/>
      <point x="212" y="361" type="line"/>
      <point x="275" y="361"/>
      <point x="333" y="374"/>
      <point x="366" y="403" type="curve" smooth="yes"/>
      <point x="441" y="470"/>
      <point x="428" y="597"/>
      <point x="478" y="661" type="curve" smooth="yes"/>
      <point x="486" y="671"/>
      <point x="495" y="678"/>
      <point x="506" y="683" type="curve" smooth="yes"/>
      <point x="507" y="684"/>
      <point x="509" y="684"/>
      <point x="510" y="685" type="curve"/>
      <point x="510" y="682"/>
      <point x="509" y="673"/>
      <point x="509" y="662" type="curve" smooth="yes"/>
      <point x="508" y="632"/>
      <point x="525" y="605"/>
      <point x="565" y="605" type="curve" smooth="yes"/>
      <point x="600" y="605"/>
      <point x="622" y="630"/>
      <point x="622" y="664" type="curve" smooth="yes"/>
      <point x="622" y="695"/>
      <point x="605" y="722"/>
      <point x="554" y="722" type="curve" smooth="yes"/>
    </contour>
    <contour>
      <point x="197" y="376" type="line"/>
      <point x="197" y="357" type="line"/>
      <point x="282" y="357" type="line" smooth="yes"/>
      <point x="384" y="357"/>
      <point x="399" y="301"/>
      <point x="418" y="218" type="curve" smooth="yes"/>
      <point x="446" y="94" type="line" smooth="yes"/>
      <point x="466" y="5"/>
      <point x="506" y="-14"/>
      <point x="553" y="-14" type="curve" smooth="yes"/>
      <point x="609" y="-14"/>
      <point x="634" y="12"/>
      <point x="660" y="50" type="curve"/>
      <point x="645" y="61" type="line"/>
      <point x="627" y="38"/>
      <point x="615" y="24"/>
      <point x="592" y="23" type="curve" smooth="yes"/>
      <point x="563" y="22"/>
      <point x="555" y="44"/>
      <point x="541" y="105" type="curve" smooth="yes"/>
      <point x="512" y="231" type="line" smooth="yes"/>
      <point x="484" y="353"/>
      <point x="392" y="376"/>
      <point x="286" y="376" type="curve" smooth="yes"/>
    </contour>
    <contour>
      <point x="339" y="708" type="move" name="top"/>
    </contour>
  </outline>
</glyph>
<glyph name="Che-cy" format="1">
  <advance width="673"/>
  <unicode hex="0427"/>
  <outline>
    <contour>
      <point x="231" y="707"/>
      <point x="184" y="704"/>
      <point x="140" y="704" type="curve" smooth="yes"/>
      <point x="96" y="704"/>
      <point x="40" y="707"/>
      <point x="17" y="708" type="curve"/>
      <point x="17" y="687" type="line"/>
      <point x="72" y="687"/>
      <point x="93" y="671"/>
      <point x="93" y="615" type="curve" smooth="yes"/>
      <point x="93" y="431" type="line" smooth="yes"/>
      <point x="93" y="361"/>
      <point x="104" y="325"/>
      <point x="141" y="297" type="curve" smooth="yes"/>
      <point x="169" y="276"/>
      <point x="212" y="262"/>
      <point x="269" y="262" type="curve" smooth="yes"/>
      <point x="339" y="262"/>
      <point x="419" y="287"/>
      <point x="457" y="310" type="curve"/>
      <point x="457" y="327" type="line"/>
      <point x="421" y="306"/>
      <point x="367" y="294"/>
      <point x="301" y="294" type="curve" smooth="yes"/>
      <point x="198" y="294"/>
      <point x="186" y="346"/>
      <point x="186" y="409" type="curve" smooth="yes"/>
      <point x="186" y="615" type="line" smooth="yes"/>
      <point x="186" y="671"/>
      <point x="204" y="687"/>
      <point x="252" y="687" type="curve"/>
      <point x="252" y="708" type="line"/>
    </contour>
    <contour>
      <point x="600" y="706"/>
      <point x="550" y="705"/>
      <point x="504" y="705" type="curve" smooth="yes"/>
      <point x="452" y="705"/>
      <point x="404" y="706"/>
      <point x="376" y="708" type="curve"/>
      <point x="376" y="688" type="line"/>
      <point x="444" y="685"/>
      <point x="457" y="675"/>
      <point x="457" y="602" type="curve" smooth="yes"/>
      <point x="457" y="106" type="line" smooth="yes"/>
      <point x="457" y="33"/>
      <point x="440" y="23"/>
      <point x="356" y="20" type="curve"/>
      <point x="356" y="0" type="line"/>
      <point x="391" y="2"/>
      <point x="449" y="3"/>
      <point x="503" y="3" type="curve" smooth="yes"/>
      <point x="555" y="3"/>
      <point x="603" y="2"/>
      <point x="631" y="0" type="curve"/>
      <point x="631" y="20" type="line"/>
      <point x="563" y="23"/>
      <point x="550" y="33"/>
      <point x="550" y="106" type="curve" smooth="yes"/>
      <point x="550" y="602" type="line" smooth="yes"/>
      <point x="550" y="675"/>
      <point x="563" y="685"/>
      <point x="631" y="688" type="curve"/>
      <point x="631" y="708" type="line"/>
    </contour>
  </outline>
</glyph>
<glyph name="Sha-cy" format="1">
  <advance width="957"/>
  <unicode hex="0428"/>
  <outline>
    <contour>
      <point x="887" y="706"/>
      <point x="839" y="705"/>
      <point x="787" y="705" type="curve" smooth="yes"/>
      <point x="745" y="705"/>
      <point x="699" y="706"/>
      <point x="670" y="708" type="curve"/>
      <point x="670" y="688" type="line"/>
      <point x="731" y="685"/>
      <point x="741" y="675"/>
      <point x="741" y="602" type="curve" smooth="yes"/>
      <point x="741" y="106" type="line" smooth="yes"/>
      <point x="741" y="33"/>
      <point x="728" y="20"/>
      <point x="660" y="20" type="curve" smooth="yes"/>
      <point x="606" y="20" type="line" smooth="yes"/>
      <point x="538" y="20"/>
      <point x="525" y="33"/>
      <point x="525" y="106" type="curve" smooth="yes"/>
      <point x="525" y="602" type="line" smooth="yes"/>
      <point x="525" y="675"/>
      <point x="535" y="685"/>
      <point x="596" y="688" type="curve"/>
      <point x="596" y="708" type="line"/>
      <point x="570" y="706"/>
      <point x="526" y="705"/>
      <point x="478" y="705" type="curve" smooth="yes"/>
      <point x="436" y="705"/>
      <point x="390" y="706"/>
      <point x="361" y="708" type="curve"/>
      <point x="361" y="688" type="line"/>
      <point x="422" y="685"/>
      <point x="432" y="675"/>
      <point x="432" y="602" type="curve" smooth="yes"/>
      <point x="432" y="106" type="line" smooth="yes"/>
      <point x="432" y="33"/>
      <point x="419" y="20"/>
      <point x="351" y="20" type="curve" smooth="yes"/>
      <point x="297" y="20" type="line" smooth="yes"/>
      <point x="229" y="20"/>
      <point x="216" y="33"/>
      <point x="216" y="106" type="curve" smooth="yes"/>
      <point x="216" y="602" type="line" smooth="yes"/>
      <point x="216" y="675"/>
      <point x="227" y="685"/>
      <point x="287" y="688" type="curve"/>
      <point x="287" y="708" type="line"/>
      <point x="258" y="706"/>
      <point x="212" y="705"/>
      <point x="170" y="705" type="curve" smooth="yes"/>
      <point x="118" y="705"/>
      <point x="70" y="706"/>
      <point x="42" y="708" type="curve"/>
      <point x="42" y="688" type="line"/>
      <point x="110" y="685"/>
      <point x="123" y="675"/>
      <point x="123" y="602" type="curve" smooth="yes"/>
      <point x="123" y="106" type="line" smooth="yes"/>
      <point x="123" y="33"/>
      <point x="110" y="23"/>
      <point x="42" y="20" type="curve"/>
      <point x="42" y="0" type="line"/>
      <point x="70" y="2"/>
      <point x="118" y="3"/>
      <point x="170" y="3" type="curve" smooth="yes"/>
      <point x="220" y="3"/>
      <point x="274" y="0"/>
      <point x="322" y="0" type="curve" smooth="yes"/>
      <point x="386" y="0"/>
      <point x="442" y="3"/>
      <point x="480" y="3" type="curve" smooth="yes"/>
      <point x="517" y="3"/>
      <point x="571" y="0"/>
      <point x="634" y="0" type="curve" smooth="yes"/>
      <point x="680" y="0"/>
      <point x="736" y="3"/>
      <point x="787" y="3" type="curve" smooth="yes"/>
      <point x="839" y="3"/>
      <point x="887" y="2"/>
      <point x="915" y="0" type="curve"/>
      <point x="915" y="20" type="line"/>
      <point x="847" y="23"/>
      <point x="834" y="33"/>
      <point x="834" y="106" type="curve" smooth="yes"/>
      <point x="834" y="602" type="line" smooth="yes"/>
      <point x="834" y="675"/>
      <point x="847" y="685"/>
      <point x="915" y="688" type="curve"/>
      <point x="915" y="708" type="line"/>
    </contour>
  </outline>
</glyph>
<glyph name="Shcha-cy" format="1">
  <advance width="965"/>
  <unicode hex="0429"/>
  <outline>
    <contour>
      <point x="887" y="706"/>
      <point x="839" y="705"/>
      <point x="787" y="705" type="curve" smooth="yes"/>
      <point x="745" y="705"/>
      <point x="699" y="706"/>
      <point x="670" y="708" type="curve"/>
      <point x="670" y="688" type="line"/>
      <point x="731" y="685"/>
      <point x="741" y="675"/>
      <point x="741" y="602" type="curve" smooth="yes"/>
      <point x="741" y="106" type="line" smooth="yes"/>
      <point x="741" y="33"/>
      <point x="728" y="20"/>
      <point x="660" y="20" type="curve" smooth="yes"/>
      <point x="606" y="20" type="line" smooth="yes"/>
      <point x="538" y="20"/>
      <point x="525" y="33"/>
      <point x="525" y="106" type="curve" smooth="yes"/>
      <point x="525" y="602" type="line" smooth="yes"/>
      <point x="525" y="675"/>
      <point x="535" y="685"/>
      <point x="596" y="688" type="curve"/>
      <point x="596" y="708" type="line"/>
      <point x="570" y="706"/>
      <point x="526" y="705"/>
      <point x="478" y="705" type="curve" smooth="yes"/>
      <point x="436" y="705"/>
      <point x="390" y="706"/>
      <point x="361" y="708" type="curve"/>
      <point x="361" y="688" type="line"/>
      <point x="422" y="685"/>
      <point x="432" y="675"/>
      <point x="432" y="602" type="curve" smooth="yes"/>
      <point x="432" y="106" type="line" smooth="yes"/>
      <point x="432" y="33"/>
      <point x="419" y="20"/>
      <point x="351" y="20" type="curve" smooth="yes"/>
      <point x="297" y="20" type="line" smooth="yes"/>
      <point x="229" y="20"/>
      <point x="216" y="33"/>
      <point x="216" y="106" type="curve" smooth="yes"/>
      <point x="216" y="602" type="line" smooth="yes"/>
      <point x="216" y="675"/>
      <point x="227" y="685"/>
      <point x="287" y="688" type="curve"/>
      <point x="287" y="708" type="line"/>
      <point x="258" y="706"/>
      <point x="212" y="705"/>
      <point x="170" y="705" type="curve" smooth="yes"/>
      <point x="118" y="705"/>
      <point x="70" y="706"/>
      <point x="42" y="708" type="curve"/>
      <point x="42" y="688" type="line"/>
      <point x="110" y="685"/>
      <point x="123" y="675"/>
      <point x="123" y="602" type="curve" smooth="yes"/>
      <point x="123" y="106" type="line" smooth="yes"/>
      <point x="123" y="33"/>
      <point x="110" y="23"/>
      <point x="42" y="20" type="curve"/>
      <point x="42" y="0" type="line"/>
      <point x="70" y="2"/>
      <point x="118" y="3"/>
      <point x="170" y="3" type="curve" smooth="yes"/>
      <point x="220" y="3"/>
      <point x="274" y="0"/>
      <point x="322" y="0" type="curve" smooth="yes"/>
      <point x="386" y="0"/>
      <point x="442" y="3"/>
      <point x="480" y="3" type="curve" smooth="yes"/>
      <point x="517" y="3"/>
      <point x="571" y="0"/>
      <point x="634" y="0" type="curve" smooth="yes"/>
      <point x="680" y="0"/>
      <point x="744" y="0"/>
      <point x="785" y="0" type="curve" smooth="yes"/>
      <point x="891" y="0"/>
      <point x="906" y="-42"/>
      <point x="919" y="-160" type="curve"/>
      <point x="942" y="-160" type="line"/>
      <point x="940" y="-145"/>
      <point x="939" y="-122"/>
      <point x="939" y="-98" type="curve" smooth="yes"/>
      <point x="939" y="-75"/>
      <point x="941" y="-27"/>
      <point x="946" y="20" type="curve"/>
      <point x="915" y="20" type="line" smooth="yes"/>
      <point x="847" y="20"/>
      <point x="834" y="33"/>
      <point x="834" y="106" type="curve" smooth="yes"/>
      <point x="834" y="602" type="line" smooth="yes"/>
      <point x="834" y="675"/>
      <point x="847" y="685"/>
      <point x="915" y="688" type="curve"/>
      <point x="915" y="708" type="line"/>
    </contour>
  </outline>
</glyph>
<glyph name="Ereversed-cy" format="1">
  <advance width="692"/>
  <unicode hex="042D"/>
  <outline>
    <contour>
      <point x="233" y="722"/>
      <point x="181" y="691"/>
      <point x="137" y="657" type="curve" smooth="yes"/>
      <point x="111" y="637"/>
      <point x="97" y="651"/>
      <point x="92" y="708" type="curve"/>
      <point x="69" y="708" type="line"/>
      <point x="72" y="659"/>
      <point x="73" y="594"/>
      <point x="73" y="478" type="curve"/>
      <point x="96" y="478" type="line"/>
      <point x="110" y="563"/>
      <point x="118" y="590"/>
      <point x="146" y="626" type="curve" smooth="yes"/>
      <point x="188" y="680"/>
      <point x="254" y="704"/>
      <point x="323" y="704" type="curve" smooth="yes"/>
      <point x="453" y="704"/>
      <point x="539" y="569"/>
      <point x="539" y="352" type="curve" smooth="yes"/>
      <point x="539" y="129"/>
      <point x="442" y="6"/>
      <point x="313" y="6" type="curve" smooth="yes"/>
      <point x="253" y="6"/>
      <point x="180" y="28"/>
      <point x="142" y="82" type="curve" smooth="yes"/>
      <point x="113" y="121"/>
      <point x="106" y="159"/>
      <point x="96" y="240" type="curve"/>
      <point x="73" y="240" type="line"/>
      <point x="73" y="119"/>
      <point x="72" y="51"/>
      <point x="69" y="0" type="curve"/>
      <point x="92" y="0" type="line"/>
      <point x="97" y="57"/>
      <point x="108" y="70"/>
      <point x="137" y="51" type="curve" smooth="yes"/>
      <point x="186" y="16"/>
      <point x="236" y="-14"/>
      <point x="322" y="-14" type="curve" smooth="yes"/>
      <point x="512" y="-14"/>
      <point x="639" y="119"/>
      <point x="639" y="348" type="curve" smooth="yes"/>
      <point x="639" y="572"/>
      <point x="507" y="722"/>
      <point x="321" y="722" type="curve" smooth="yes"/>
    </contour>
    <contour>
      <point x="156" y="429"/>
      <point x="96" y="392"/>
      <point x="76" y="318" type="curve"/>
      <point x="92" y="311" type="line"/>
      <point x="107" y="354"/>
      <point x="144" y="371"/>
      <point x="181" y="371" type="curve" smooth="yes"/>
      <point x="266" y="371"/>
      <point x="317" y="289"/>
      <point x="410" y="289" type="curve" smooth="yes"/>
      <point x="474" y="289"/>
      <point x="530" y="326"/>
      <point x="548" y="400" type="curve"/>
      <point x="541" y="405" type="line"/>
      <point x="523" y="362"/>
      <point x="490" y="347"/>
      <point x="454" y="347" type="curve" smooth="yes"/>
      <point x="366" y="347"/>
      <point x="319" y="429"/>
      <point x="223" y="429" type="curve" smooth="yes"/>
    </contour>
  </outline>
</glyph>
<glyph name="be-cy" format="1">
  <advance width="561"/>
  <unicode hex="0431"/>
  <outline>
    <contour>
      <point x="482" y="739"/>
      <point x="450" y="728"/>
      <point x="392" y="719" type="curve" smooth="yes"/>
      <point x="354" y="713"/>
      <point x="306" y="709"/>
      <point x="262" y="698" type="curve" smooth="yes"/>
      <point x="203" y="683"/>
      <point x="171" y="659"/>
      <point x="147" y="627" type="curve" smooth="yes"/>
      <point x="78" y="535"/>
      <point x="63" y="381"/>
      <point x="63" y="278" type="curve" smooth="yes"/>
      <point x="63" y="85"/>
      <point x="149" y="-14"/>
      <point x="283" y="-14" type="curve" smooth="yes"/>
      <point x="414" y="-14"/>
      <point x="514" y="92"/>
      <point x="514" y="265" type="curve" smooth="yes"/>
      <point x="514" y="398"/>
      <point x="455" y="529"/>
      <point x="296" y="529" type="curve" smooth="yes"/>
      <point x="202" y="529"/>
      <point x="110" y="480"/>
      <point x="81" y="312" type="curve"/>
      <point x="138" y="284" type="line"/>
      <point x="88" y="345" type="line"/>
      <point x="108" y="551"/>
      <point x="156" y="599"/>
      <point x="263" y="626" type="curve" smooth="yes"/>
      <point x="307" y="637"/>
      <point x="331" y="639"/>
      <point x="364" y="644" type="curve" smooth="yes"/>
      <point x="413" y="652"/>
      <point x="438" y="661"/>
      <point x="465" y="685" type="curve" smooth="yes"/>
      <point x="489" y="707"/>
      <point x="506" y="738"/>
      <point x="520" y="782" type="curve"/>
      <point x="505" y="786" type="line"/>
    </contour>
    <contour>
      <point x="366" y="508"/>
      <point x="417" y="445"/>
      <point x="417" y="258" type="curve" smooth="yes"/>
      <point x="417" y="162"/>
      <point x="399" y="6"/>
      <point x="289" y="6" type="curve" smooth="yes"/>
      <point x="225" y="6"/>
      <point x="158" y="63"/>
      <point x="158" y="277" type="curve" smooth="yes"/>
      <point x="158" y="431"/>
      <point x="226" y="508"/>
      <point x="291" y="508" type="curve" smooth="yes"/>
    </contour>
  </outline>
</glyph>
<glyph name="zhe-cy" format="1">
  <advance width="841"/>
  <unicode hex="0436"/>
  <outline>
    <contour>
      <point x="660" y="529"/>
      <point x="639" y="458"/>
      <point x="620" y="402" type="curve" smooth="yes"/>
      <point x="594" y="325"/>
      <point x="570" y="280"/>
      <point x="460" y="274" type="curve"/>
      <point x="460" y="257" type="line"/>
      <point x="549" y="259"/>
      <point x="579" y="247"/>
      <point x="607" y="208" type="curve" smooth="yes"/>
      <point x="635" y="169"/>
      <point x="644" y="121"/>
      <point x="654" y="69" type="curve" smooth="yes"/>
      <point x="659" y="43"/>
      <point x="656" y="21"/>
      <point x="629" y="21" type="curve"/>
      <point x="629" y="0" type="line"/>
      <point x="650" y="1"/>
      <point x="700" y="4"/>
      <point x="736" y="4" type="curve" smooth="yes"/>
      <point x="772" y="4"/>
      <point x="806" y="1"/>
      <point x="821" y="0" type="curve"/>
      <point x="821" y="21" type="line"/>
      <point x="780" y="25"/>
      <point x="765" y="42"/>
      <point x="750" y="76" type="curve" smooth="yes"/>
      <point x="732" y="118"/>
      <point x="719" y="172"/>
      <point x="697" y="207" type="curve" smooth="yes"/>
      <point x="662" y="262"/>
      <point x="600" y="278"/>
      <point x="520" y="276" type="curve"/>
      <point x="511" y="269" type="line"/>
      <point x="591" y="279"/>
      <point x="612" y="330"/>
      <point x="633" y="385" type="curve" smooth="yes"/>
      <point x="657" y="448"/>
      <point x="669" y="482"/>
      <point x="691" y="492" type="curve"/>
      <point x="691" y="490"/>
      <point x="691" y="487"/>
      <point x="691" y="485" type="curve" smooth="yes"/>
      <point x="691" y="447"/>
      <point x="713" y="421"/>
      <point x="749" y="421" type="curve" smooth="yes"/>
      <point x="782" y="421"/>
      <point x="802" y="444"/>
      <point x="802" y="474" type="curve" smooth="yes"/>
      <point x="802" y="502"/>
      <point x="785" y="529"/>
      <point x="738" y="529" type="curve" smooth="yes"/>
    </contour>
    <contour>
      <point x="53" y="529"/>
      <point x="36" y="502"/>
      <point x="36" y="474" type="curve" smooth="yes"/>
      <point x="36" y="444"/>
      <point x="56" y="421"/>
      <point x="89" y="421" type="curve" smooth="yes"/>
      <point x="125" y="421"/>
      <point x="147" y="447"/>
      <point x="147" y="485" type="curve" smooth="yes"/>
      <point x="147" y="487"/>
      <point x="147" y="490"/>
      <point x="147" y="492" type="curve"/>
      <point x="169" y="482"/>
      <point x="181" y="448"/>
      <point x="205" y="385" type="curve" smooth="yes"/>
      <point x="226" y="330"/>
      <point x="247" y="279"/>
      <point x="327" y="269" type="curve"/>
      <point x="318" y="276" type="line"/>
      <point x="243" y="278"/>
      <point x="181" y="262"/>
      <point x="148" y="207" type="curve" smooth="yes"/>
      <point x="126" y="172"/>
      <point x="113" y="118"/>
      <point x="95" y="76" type="curve" smooth="yes"/>
      <point x="80" y="42"/>
      <point x="65" y="25"/>
      <point x="24" y="21" type="curve"/>
      <point x="24" y="0" type="line"/>
      <point x="37" y="1"/>
      <point x="70" y="4"/>
      <point x="102" y="4" type="curve" smooth="yes"/>
      <point x="138" y="4"/>
      <point x="188" y="1"/>
      <point x="209" y="0" type="curve"/>
      <point x="209" y="21" type="line"/>
      <point x="182" y="21"/>
      <point x="179" y="43"/>
      <point x="184" y="69" type="curve" smooth="yes"/>
      <point x="194" y="121"/>
      <point x="203" y="169"/>
      <point x="231" y="208" type="curve" smooth="yes"/>
      <point x="259" y="247"/>
      <point x="289" y="259"/>
      <point x="378" y="257" type="curve"/>
      <point x="378" y="274" type="line"/>
      <point x="268" y="280"/>
      <point x="244" y="325"/>
      <point x="218" y="402" type="curve" smooth="yes"/>
      <point x="199" y="458"/>
      <point x="178" y="529"/>
      <point x="100" y="529" type="curve" smooth="yes"/>
    </contour>
    <contour>
      <point x="509" y="513"/>
      <point x="460" y="510"/>
      <point x="420" y="510" type="curve" smooth="yes"/>
      <point x="376" y="510"/>
      <point x="329" y="513"/>
      <point x="308" y="514" type="curve"/>
      <point x="308" y="493" type="line"/>
      <point x="356" y="493"/>
      <point x="374" y="477"/>
      <point x="374" y="421" type="curve" smooth="yes"/>
      <point x="374" y="93" type="line" smooth="yes"/>
      <point x="374" y="37"/>
      <point x="356" y="21"/>
      <point x="308" y="21" type="curve"/>
      <point x="308" y="0" type="line"/>
      <point x="329" y="1"/>
      <point x="376" y="4"/>
      <point x="420" y="4" type="curve" smooth="yes"/>
      <point x="460" y="4"/>
      <point x="509" y="1"/>
      <point x="530" y="0" type="curve"/>
      <point x="530" y="21" type="line"/>
      <point x="482" y="21"/>
      <point x="464" y="37"/>
      <point x="464" y="93" type="curve" smooth="yes"/>
      <point x="464" y="421" type="line" smooth="yes"/>
      <point x="464" y="477"/>
      <point x="482" y="493"/>
      <point x="530" y="493" type="curve"/>
      <point x="530" y="514" type="line"/>
    </contour>
  </outline>
</glyph>
<glyph name="ka-cy" format="1">
  <advance width="572"/>
  <unicode hex="043A"/>
  <outline>
    <contour>
      <point x="391" y="529"/>
      <point x="370" y="458"/>
      <point x="351" y="402" type="curve" smooth="yes"/>
      <point x="325" y="325"/>
      <point x="301" y="280"/>
      <point x="191" y="274" type="curve"/>
      <point x="191" y="257" type="line"/>
      <point x="280" y="259"/>
      <point x="310" y="247"/>
      <point x="338" y="208" type="curve" smooth="yes"/>
      <point x="366" y="169"/>
      <point x="375" y="121"/>
      <point x="385" y="69" type="curve" smooth="yes"/>
      <point x="390" y="43"/>
      <point x="387" y="21"/>
      <point x="360" y="21" type="curve"/>
      <point x="360" y="0" type="line"/>
      <point x="381" y="1"/>
      <point x="431" y="4"/>
      <point x="467" y="4" type="curve" smooth="yes"/>
      <point x="503" y="4"/>
      <point x="537" y="1"/>
      <point x="552" y="0" type="curve"/>
      <point x="552" y="21" type="line"/>
      <point x="511" y="25"/>
      <point x="496" y="42"/>
      <point x="481" y="76" type="curve" smooth="yes"/>
      <point x="463" y="118"/>
      <point x="450" y="172"/>
      <point x="428" y="207" type="curve" smooth="yes"/>
      <point x="393" y="262"/>
      <point x="331" y="278"/>
      <point x="251" y="276" type="curve"/>
      <point x="242" y="269" type="line"/>
      <point x="322" y="279"/>
      <point x="343" y="330"/>
      <point x="364" y="385" type="curve" smooth="yes"/>
      <point x="388" y="448"/>
      <point x="400" y="482"/>
      <point x="422" y="492" type="curve"/>
      <point x="422" y="490"/>
      <point x="422" y="487"/>
      <point x="422" y="485" type="curve" smooth="yes"/>
      <point x="422" y="447"/>
      <point x="444" y="421"/>
      <point x="480" y="421" type="curve" smooth="yes"/>
      <point x="513" y="421"/>
      <point x="533" y="444"/>
      <point x="533" y="474" type="curve" smooth="yes"/>
      <point x="533" y="502"/>
      <point x="516" y="529"/>
      <point x="469" y="529" type="curve" smooth="yes"/>
    </contour>
    <contour>
      <point x="240" y="513"/>
      <point x="191" y="510"/>
      <point x="151" y="510" type="curve" smooth="yes"/>
      <point x="103" y="510"/>
      <point x="52" y="513"/>
      <point x="29" y="514" type="curve"/>
      <point x="29" y="493" type="line"/>
      <point x="84" y="493"/>
      <point x="105" y="477"/>
      <point x="105" y="421" type="curve" smooth="yes"/>
      <point x="105" y="93" type="line" smooth="yes"/>
      <point x="105" y="37"/>
      <point x="84" y="21"/>
      <point x="29" y="21" type="curve"/>
      <point x="29" y="0" type="line"/>
      <point x="52" y="1"/>
      <point x="103" y="4"/>
      <point x="151" y="4" type="curve" smooth="yes"/>
      <point x="191" y="4"/>
      <point x="240" y="1"/>
      <point x="261" y="0" type="curve"/>
      <point x="261" y="21" type="line"/>
      <point x="213" y="21"/>
      <point x="195" y="37"/>
      <point x="195" y="93" type="curve" smooth="yes"/>
      <point x="195" y="421" type="line" smooth="yes"/>
      <point x="195" y="477"/>
      <point x="213" y="493"/>
      <point x="261" y="493" type="curve"/>
      <point x="261" y="514" type="line"/>
    </contour>
    <contour>
      <point x="286" y="514" type="move" name="top"/>
    </contour>
  </outline>
</glyph>
<glyph name="el-cy" format="1">
  <advance width="584"/>
  <unicode hex="043B"/>
  <outline>
    <contour>
      <point x="532" y="513"/>
      <point x="480" y="510"/>
      <point x="434" y="510" type="curve" smooth="yes"/>
      <point x="389" y="510"/>
      <point x="362" y="514"/>
      <point x="325" y="514" type="curve" smooth="yes"/>
      <point x="288" y="514"/>
      <point x="252" y="510"/>
      <point x="219" y="510" type="curve" smooth="yes"/>
      <point x="186" y="510"/>
      <point x="162" y="513"/>
      <point x="151" y="514" type="curve"/>
      <point x="151" y="493" type="line"/>
      <point x="206" y="493"/>
      <point x="234" y="477"/>
      <point x="230" y="421" type="curve" smooth="yes"/>
      <point x="221" y="303"/>
      <point x="207" y="181"/>
      <point x="174" y="96" type="curve" smooth="yes"/>
      <point x="159" y="59"/>
      <point x="132" y="1"/>
      <point x="83" y="1" type="curve" smooth="yes"/>
      <point x="81" y="1"/>
      <point x="75" y="1"/>
      <point x="73" y="2" type="curve"/>
      <point x="100" y="12"/>
      <point x="111" y="29"/>
      <point x="111" y="51" type="curve" smooth="yes"/>
      <point x="111" y="83"/>
      <point x="89" y="99"/>
      <point x="60" y="99" type="curve" smooth="yes"/>
      <point x="29" y="99"/>
      <point x="7" y="78"/>
      <point x="7" y="47" type="curve" smooth="yes"/>
      <point x="7" y="6"/>
      <point x="40" y="-14"/>
      <point x="79" y="-14" type="curve" smooth="yes"/>
      <point x="136" y="-14"/>
      <point x="170" y="42"/>
      <point x="190" y="91" type="curve" smooth="yes"/>
      <point x="226" y="181"/>
      <point x="239" y="312"/>
      <point x="248" y="421" type="curve" smooth="yes"/>
      <point x="253" y="477"/>
      <point x="266" y="493"/>
      <point x="314" y="493" type="curve" smooth="yes"/>
      <point x="323" y="493" type="line" smooth="yes"/>
      <point x="371" y="493"/>
      <point x="389" y="477"/>
      <point x="389" y="421" type="curve" smooth="yes"/>
      <point x="389" y="93" type="line" smooth="yes"/>
      <point x="389" y="36"/>
      <point x="353" y="21"/>
      <point x="293" y="21" type="curve"/>
      <point x="293" y="0" type="line"/>
      <point x="322" y="1"/>
      <point x="379" y="4"/>
      <point x="437" y="4" type="curve" smooth="yes"/>
      <point x="483" y="4"/>
      <point x="532" y="1"/>
      <point x="555" y="0" type="curve"/>
      <point x="555" y="21" type="line"/>
      <point x="500" y="21"/>
      <point x="479" y="37"/>
      <point x="479" y="93" type="curve" smooth="yes"/>
      <point x="479" y="421" type="line" smooth="yes"/>
      <point x="479" y="477"/>
      <point x="500" y="493"/>
      <point x="555" y="493" type="curve"/>
      <point x="555" y="514" type="line"/>
    </contour>
  </outline>
</glyph>
<glyph name="ef-cy" format="1">
  <advance width="817"/>
  <unicode hex="0444"/>
  <outline>
    <contour>
      <point x="425" y="710"/>
      <point x="389" y="706"/>
      <point x="350" y="706" type="curve" smooth="yes"/>
      <point x="330" y="706"/>
      <point x="309" y="707"/>
      <point x="288" y="709" type="curve"/>
      <point x="288" y="688" type="line"/>
      <point x="346" y="688"/>
      <point x="364" y="660"/>
      <point x="364" y="600" type="curve" smooth="yes"/>
      <point x="364" y="-88" type="line" smooth="yes"/>
      <point x="364" y="-145"/>
      <point x="336" y="-160"/>
      <point x="288" y="-160" type="curve"/>
      <point x="288" y="-181" type="line"/>
      <point x="313" y="-180"/>
      <point x="359" y="-177"/>
      <point x="409" y="-177" type="curve" smooth="yes"/>
      <point x="459" y="-177"/>
      <point x="505" y="-180"/>
      <point x="530" y="-181" type="curve"/>
      <point x="530" y="-160" type="line"/>
      <point x="482" y="-160"/>
      <point x="454" y="-145"/>
      <point x="454" y="-88" type="curve" smooth="yes"/>
      <point x="454" y="720" type="line"/>
    </contour>
    <contour>
      <point x="140" y="529"/>
      <point x="48" y="439"/>
      <point x="48" y="257" type="curve" smooth="yes"/>
      <point x="48" y="75"/>
      <point x="136" y="-14"/>
      <point x="251" y="-14" type="curve" smooth="yes"/>
      <point x="325" y="-14"/>
      <point x="383" y="39"/>
      <point x="392" y="134" type="curve"/>
      <point x="380" y="143" type="line"/>
      <point x="373" y="57"/>
      <point x="326" y="16"/>
      <point x="280" y="16" type="curve" smooth="yes"/>
      <point x="191" y="16"/>
      <point x="145" y="95"/>
      <point x="145" y="257" type="curve" smooth="yes"/>
      <point x="145" y="426"/>
      <point x="189" y="506"/>
      <point x="262" y="506" type="curve" smooth="yes"/>
      <point x="311" y="506"/>
      <point x="351" y="481"/>
      <point x="372" y="426" type="curve"/>
      <point x="392" y="415" type="line"/>
      <point x="369" y="496"/>
      <point x="327" y="529"/>
      <point x="254" y="529" type="curve" smooth="yes"/>
    </contour>
    <contour>
      <point x="503" y="529"/>
      <point x="438" y="476"/>
      <point x="425" y="381" type="curve"/>
      <point x="437" y="372" type="line"/>
      <point x="448" y="458"/>
      <point x="501" y="499"/>
      <point x="553" y="499" type="curve" smooth="yes"/>
      <point x="632" y="499"/>
      <point x="673" y="427"/>
      <point x="673" y="276" type="curve" smooth="yes"/>
      <point x="673" y="116"/>
      <point x="643" y="9"/>
      <point x="536" y="9" type="curve" smooth="yes"/>
      <point x="504" y="9"/>
      <point x="467" y="25"/>
      <point x="444" y="60" type="curve"/>
      <point x="439" y="39" type="line"/>
      <point x="460" y="8"/>
      <point x="497" y="-14"/>
      <point x="544" y="-14" type="curve" smooth="yes"/>
      <point x="710" y="-14"/>
      <point x="770" y="137"/>
      <point x="770" y="277" type="curve" smooth="yes"/>
      <point x="770" y="446"/>
      <point x="689" y="529"/>
      <point x="582" y="529" type="curve" smooth="yes"/>
    </contour>
  </outline>
</glyph>
<glyph name="che-cy" format="1">
  <advance width="588"/>
  <unicode hex="0447"/>
  <outline>
    <contour>
      <point x="536" y="513"/>
      <point x="483" y="510"/>
      <point x="439" y="510" type="curve" smooth="yes"/>
      <point x="395" y="510"/>
      <point x="348" y="513"/>
      <point x="327" y="514" type="curve"/>
      <point x="327" y="493" type="line"/>
      <point x="375" y="493"/>
      <point x="393" y="477"/>
      <point x="393" y="421" type="curve" smooth="yes"/>
      <point x="393" y="103" type="line" smooth="yes"/>
      <point x="393" y="38"/>
      <point x="353" y="21"/>
      <point x="287" y="21" type="curve"/>
      <point x="287" y="0" type="line"/>
      <point x="318" y="1"/>
      <point x="379" y="4"/>
      <point x="441" y="4" type="curve" smooth="yes"/>
      <point x="487" y="4"/>
      <point x="536" y="1"/>
      <point x="559" y="0" type="curve"/>
      <point x="559" y="21" type="line"/>
      <point x="504" y="21"/>
      <point x="483" y="37"/>
      <point x="483" y="93" type="curve" smooth="yes"/>
      <point x="483" y="421" type="line" smooth="yes"/>
      <point x="483" y="477"/>
      <point x="504" y="493"/>
      <point x="559" y="493" type="curve"/>
      <point x="559" y="514" type="line"/>
    </contour>
    <contour>
      <point x="227" y="513"/>
      <point x="180" y="510"/>
      <point x="136" y="510" type="curve" smooth="yes"/>
      <point x="92" y="510"/>
      <point x="39" y="513"/>
      <point x="16" y="514" type="curve"/>
      <point x="16" y="493" type="line"/>
      <point x="71" y="493"/>
      <point x="92" y="477"/>
      <point x="92" y="421" type="curve" smooth="yes"/>
      <point x="92" y="345" type="line" smooth="yes"/>
      <point x="92" y="282"/>
      <point x="100" y="241"/>
      <point x="125" y="214" type="curve" smooth="yes"/>
      <point x="146" y="191"/>
      <point x="180" y="176"/>
      <point x="233" y="176" type="curve" smooth="yes"/>
      <point x="294" y="176"/>
      <point x="362" y="199"/>
      <point x="393" y="216" type="curve"/>
      <point x="393" y="237" type="line"/>
      <point x="364" y="220"/>
      <point x="319" y="208"/>
      <point x="262" y="208" type="curve" smooth="yes"/>
      <point x="186" y="208"/>
      <point x="182" y="256"/>
      <point x="182" y="323" type="curve" smooth="yes"/>
      <point x="182" y="421" type="line" smooth="yes"/>
      <point x="182" y="477"/>
      <point x="200" y="493"/>
      <point x="248" y="493" type="curve"/>
      <point x="248" y="514" type="line"/>
    </contour>
  </outline>
</glyph>
<glyph name="sha-cy" format="1">
  <advance width="834"/>
  <unicode hex="0448"/>
  <outline>
    <contour>
      <point x="782" y="513"/>
      <point x="729" y="510"/>
      <point x="685" y="510" type="curve" smooth="yes"/>
      <point x="645" y="510"/>
      <point x="602" y="513"/>
      <point x="583" y="514" type="curve"/>
      <point x="583" y="493" type="line"/>
      <point x="624" y="493"/>
      <point x="639" y="477"/>
      <point x="639" y="421" type="curve" smooth="yes"/>
      <point x="639" y="93" type="line" smooth="yes"/>
      <point x="639" y="37"/>
      <point x="621" y="21"/>
      <point x="573" y="21" type="curve" smooth="yes"/>
      <point x="528" y="21" type="line" smooth="yes"/>
      <point x="480" y="21"/>
      <point x="462" y="37"/>
      <point x="462" y="93" type="curve" smooth="yes"/>
      <point x="462" y="421" type="line" smooth="yes"/>
      <point x="462" y="477"/>
      <point x="477" y="493"/>
      <point x="518" y="493" type="curve"/>
      <point x="518" y="514" type="line"/>
      <point x="499" y="513"/>
      <point x="454" y="510"/>
      <point x="418" y="510" type="curve" smooth="yes"/>
      <point x="378" y="510"/>
      <point x="335" y="513"/>
      <point x="316" y="514" type="curve"/>
      <point x="316" y="493" type="line"/>
      <point x="357" y="493"/>
      <point x="372" y="477"/>
      <point x="372" y="421" type="curve" smooth="yes"/>
      <point x="372" y="93" type="line" smooth="yes"/>
      <point x="372" y="37"/>
      <point x="354" y="21"/>
      <point x="306" y="21" type="curve" smooth="yes"/>
      <point x="261" y="21" type="line" smooth="yes"/>
      <point x="213" y="21"/>
      <point x="195" y="37"/>
      <point x="195" y="93" type="curve" smooth="yes"/>
      <point x="195" y="421" type="line" smooth="yes"/>
      <point x="195" y="477"/>
      <point x="210" y="493"/>
      <point x="251" y="493" type="curve"/>
      <point x="251" y="514" type="line"/>
      <point x="232" y="513"/>
      <point x="189" y="510"/>
      <point x="149" y="510" type="curve" smooth="yes"/>
      <point x="105" y="510"/>
      <point x="52" y="513"/>
      <point x="29" y="514" type="curve"/>
      <point x="29" y="493" type="line"/>
      <point x="84" y="493"/>
      <point x="105" y="477"/>
      <point x="105" y="421" type="curve" smooth="yes"/>
      <point x="105" y="93" type="line" smooth="yes"/>
      <point x="105" y="37"/>
      <point x="84" y="21"/>
      <point x="29" y="21" type="curve"/>
      <point x="29" y="0" type="line"/>
      <point x="52" y="1"/>
      <point x="105" y="4"/>
      <point x="149" y="4" type="curve" smooth="yes"/>
      <point x="199" y="4"/>
      <point x="242" y="0"/>
      <point x="283" y="0" type="curve" smooth="yes"/>
      <point x="327" y="0"/>
      <point x="372" y="4"/>
      <point x="415" y="4" type="curve" smooth="yes"/>
      <point x="461" y="4"/>
      <point x="507" y="0"/>
      <point x="552" y="0" type="curve" smooth="yes"/>
      <point x="590" y="0"/>
      <point x="636" y="4"/>
      <point x="685" y="4" type="curve" smooth="yes"/>
      <point x="729" y="4"/>
      <point x="782" y="1"/>
      <point x="805" y="0" type="curve"/>
      <point x="805" y="21" type="line"/>
      <point x="750" y="21"/>
      <point x="729" y="37"/>
      <point x="729" y="93" type="curve" smooth="yes"/>
      <point x="729" y="421" type="line" smooth="yes"/>
      <point x="729" y="477"/>
      <point x="750" y="493"/>
      <point x="805" y="493" type="curve"/>
      <point x="805" y="514" type="line"/>
    </contour>
  </outline>
</glyph>
<glyph name="shcha-cy" format="1">
  <advance width="834"/>
  <unicode hex="0449"/>
  <outline>
    <contour>
      <point x="782" y="513"/>
      <point x="729" y="510"/>
      <point x="685" y="510" type="curve" smooth="yes"/>
      <point x="645" y="510"/>
      <point x="602" y="513"/>
      <point x="583" y="514" type="curve"/>
      <point x="583" y="493" type="line"/>
      <point x="624" y="493"/>
      <point x="639" y="477"/>
      <point x="639" y="421" type="curve" smooth="yes"/>
      <point x="639" y="93" type="line" smooth="yes"/>
      <point x="639" y="37"/>
      <point x="621" y="21"/>
      <point x="573" y="21" type="curve" smooth="yes"/>
      <point x="528" y="21" type="line" smooth="yes"/>
      <point x="480" y="21"/>
      <point x="462" y="37"/>
      <point x="462" y="93" type="curve" smooth="yes"/>
      <point x="462" y="421" type="line" smooth="yes"/>
      <point x="462" y="477"/>
      <point x="477" y="493"/>
      <point x="518" y="493" type="curve"/>
      <point x="518" y="514" type="line"/>
      <point x="499" y="513"/>
      <point x="454" y="510"/>
      <point x="418" y="510" type="curve" smooth="yes"/>
      <point x="378" y="510"/>
      <point x="335" y="513"/>
      <point x="316" y="514" type="curve"/>
      <point x="316" y="493" type="line"/>
      <point x="357" y="493"/>
      <point x="372" y="477"/>
      <point x="372" y="421" type="curve" smooth="yes"/>
      <point x="372" y="93" type="line" smooth="yes"/>
      <point x="372" y="37"/>
      <point x="354" y="21"/>
      <point x="306" y="21" type="curve" smooth="yes"/>
      <point x="261" y="21" type="line" smooth="yes"/>
      <point x="213" y="21"/>
      <point x="195" y="37"/>
      <point x="195" y="93" type="curve" smooth="yes"/>
      <point x="195" y="421" type="line" smooth="yes"/>
      <point x="195" y="477"/>
      <point x="210" y="493"/>
      <point x="251" y="493" type="curve"/>
      <point x="251" y="514" type="line"/>
      <point x="232" y="513"/>
      <point x="189" y="510"/>
      <point x="149" y="510" type="curve" smooth="yes"/>
      <point x="105" y="510"/>
      <point x="52" y="513"/>
      <point x="29" y="514" type="curve"/>
      <point x="29" y="493" type="line"/>
      <point x="84" y="493"/>
      <point x="105" y="477"/>
      <point x="105" y="421" type="curve" smooth="yes"/>
      <point x="105" y="93" type="line" smooth="yes"/>
      <point x="105" y="37"/>
      <point x="84" y="21"/>
      <point x="29" y="21" type="curve"/>
      <point x="29" y="0" type="line"/>
      <point x="52" y="1"/>
      <point x="105" y="4"/>
      <point x="149" y="4" type="curve" smooth="yes"/>
      <point x="199" y="4"/>
      <point x="242" y="0"/>
      <point x="283" y="0" type="curve" smooth="yes"/>
      <point x="327" y="0"/>
      <point x="372" y="4"/>
      <point x="415" y="4" type="curve" smooth="yes"/>
      <point x="461" y="4"/>
      <point x="507" y="0"/>
      <point x="552" y="0" type="curve" smooth="yes"/>
      <point x="578" y="0"/>
      <point x="611" y="4"/>
      <point x="644" y="4" type="curve" smooth="yes"/>
      <point x="750" y="4"/>
      <point x="765" y="-41"/>
      <point x="778" y="-159" type="curve"/>
      <point x="801" y="-159" type="line"/>
      <point x="799" y="-144"/>
      <point x="798" y="-121"/>
      <point x="798" y="-97" type="curve" smooth="yes"/>
      <point x="798" y="-74"/>
      <point x="800" y="-26"/>
      <point x="805" y="21" type="curve"/>
      <point x="750" y="21"/>
      <point x="729" y="37"/>
      <point x="729" y="93" type="curve" smooth="yes"/>
      <point x="729" y="421" type="line" smooth="yes"/>
      <point x="729" y="477"/>
      <point x="750" y="493"/>
      <point x="805" y="493" type="curve"/>
      <point x="805" y="514" type="line"/>
    </contour>
  </outline>
</glyph>
<glyph name="ereversed-cy" format="1">
  <advance width="498"/>
  <unicode hex="044D"/>
  <outline>
    <contour>
      <point x="185" y="529"/>
      <point x="158" y="513"/>
      <point x="126" y="494" type="curve" smooth="yes"/>
      <point x="100" y="478"/>
      <point x="86" y="495"/>
      <point x="81" y="529" type="curve"/>
      <point x="58" y="529" type="line"/>
      <point x="61" y="494"/>
      <point x="62" y="446"/>
      <point x="62" y="365" type="curve"/>
      <point x="85" y="365" type="line"/>
      <point x="89" y="395"/>
      <point x="98" y="426"/>
      <point x="118" y="452" type="curve" smooth="yes"/>
      <point x="137" y="477"/>
      <point x="175" y="506"/>
      <point x="220" y="506" type="curve" smooth="yes"/>
      <point x="290" y="506"/>
      <point x="355" y="435"/>
      <point x="355" y="257" type="curve" smooth="yes"/>
      <point x="355" y="59"/>
      <point x="274" y="4"/>
      <point x="195" y="4" type="curve" smooth="yes"/>
      <point x="169" y="4"/>
      <point x="123" y="10"/>
      <point x="111" y="34" type="curve"/>
      <point x="135" y="39"/>
      <point x="156" y="58"/>
      <point x="156" y="88" type="curve" smooth="yes"/>
      <point x="156" y="120"/>
      <point x="132" y="141"/>
      <point x="101" y="141" type="curve" smooth="yes"/>
      <point x="71" y="141"/>
      <point x="45" y="120"/>
      <point x="45" y="87" type="curve" smooth="yes"/>
      <point x="45" y="55"/>
      <point x="68" y="29"/>
      <point x="96" y="12" type="curve" smooth="yes"/>
      <point x="128" y="-7"/>
      <point x="164" y="-14"/>
      <point x="200" y="-14" type="curve" smooth="yes"/>
      <point x="342" y="-14"/>
      <point x="452" y="96"/>
      <point x="452" y="268" type="curve" smooth="yes"/>
      <point x="452" y="426"/>
      <point x="359" y="529"/>
      <point x="234" y="529" type="curve" smooth="yes"/>
    </contour>
    <contour>
      <point x="340" y="278"/>
      <point x="304" y="268"/>
      <point x="277" y="268" type="curve" smooth="yes"/>
      <point x="219" y="268"/>
      <point x="204" y="316"/>
      <point x="154" y="316" type="curve" smooth="yes"/>
      <point x="113" y="316"/>
      <point x="87" y="284"/>
      <point x="60" y="232" type="curve"/>
      <point x="74" y="224" type="line"/>
      <point x="92" y="251"/>
      <point x="106" y="262"/>
      <point x="130" y="262" type="curve" smooth="yes"/>
      <point x="183" y="262"/>
      <point x="188" y="213"/>
      <point x="259" y="213" type="curve" smooth="yes"/>
      <point x="304" y="213"/>
      <point x="338" y="233"/>
      <point x="361" y="307" type="curve"/>
      <point x="358" y="325" type="line"/>
    </contour>
  </outline>
</glyph>
<glyph name="ia-cy" format="1">
  <advance width="563"/>
  <unicode hex="044F"/>
  <outline>
    <contour>
      <point x="513" y="513"/>
      <point x="460" y="510"/>
      <point x="418" y="510" type="curve" smooth="yes"/>
      <point x="370" y="510"/>
      <point x="323" y="514"/>
      <point x="286" y="514" type="curve" smooth="yes"/>
      <point x="119" y="514"/>
      <point x="65" y="446"/>
      <point x="65" y="373" type="curve" smooth="yes"/>
      <point x="65" y="297"/>
      <point x="123" y="245"/>
      <point x="241" y="243" type="curve" smooth="yes"/>
      <point x="273" y="242"/>
      <point x="351" y="245"/>
      <point x="432" y="245" type="curve"/>
      <point x="430" y="264" type="line"/>
      <point x="397" y="264"/>
      <point x="363" y="264"/>
      <point x="330" y="264" type="curve" smooth="yes"/>
      <point x="205" y="264"/>
      <point x="157" y="295"/>
      <point x="157" y="373" type="curve" smooth="yes"/>
      <point x="157" y="437"/>
      <point x="182" y="493"/>
      <point x="297" y="493" type="curve" smooth="yes"/>
      <point x="351" y="493"/>
      <point x="370" y="475"/>
      <point x="370" y="421" type="curve" smooth="yes"/>
      <point x="370" y="93" type="line" smooth="yes"/>
      <point x="370" y="37"/>
      <point x="349" y="21"/>
      <point x="294" y="21" type="curve"/>
      <point x="294" y="0" type="line"/>
      <point x="317" y="1"/>
      <point x="370" y="4"/>
      <point x="414" y="4" type="curve" smooth="yes"/>
      <point x="458" y="4"/>
      <point x="505" y="1"/>
      <point x="526" y="0" type="curve"/>
      <point x="526" y="21" type="line"/>
      <point x="478" y="21"/>
      <point x="460" y="37"/>
      <point x="460" y="93" type="curve" smooth="yes"/>
      <point x="460" y="421" type="line" smooth="yes"/>
      <point x="460" y="477"/>
      <point x="481" y="493"/>
      <point x="536" y="493" type="curve"/>
      <point x="536" y="514" type="line"/>
    </contour>
    <contour>
      <point x="254" y="249" type="line"/>
      <point x="207" y="239"/>
      <point x="169" y="225"/>
      <point x="142" y="206" type="curve" smooth="yes"/>
      <point x="102" y="178"/>
      <point x="82" y="135"/>
      <point x="65" y="76" type="curve" smooth="yes"/>
      <point x="56" y="45"/>
      <point x="53" y="27"/>
      <point x="20" y="21" type="curve"/>
      <point x="20" y="0" type="line"/>
      <point x="33" y="1"/>
      <point x="69" y="4"/>
      <point x="102" y="4" type="curve" smooth="yes"/>
      <point x="134" y="4"/>
      <point x="180" y="1"/>
      <point x="199" y="0" type="curve"/>
      <point x="199" y="21" type="line"/>
      <point x="158" y="21"/>
      <point x="154" y="46"/>
      <point x="154" y="70" type="curve" smooth="yes"/>
      <point x="154" y="123"/>
      <point x="173" y="175"/>
      <point x="201" y="202" type="curve" smooth="yes"/>
      <point x="235" y="235"/>
      <point x="284" y="242"/>
      <point x="338" y="244" type="curve"/>
      <point x="339" y="255" type="line"/>
    </contour>
  </outline>
</glyph>
<glyph name="e-cy" format="1">
  <advance width="493"/>
  <unicode hex="0454"/>
  <outline>
    <contour>
      <point x="141" y="529"/>
      <point x="46" y="415"/>
      <point x="46" y="251" type="curve" smooth="yes"/>
      <point x="46" y="86"/>
      <point x="143" y="-14"/>
      <point x="268" y="-14" type="curve" smooth="yes"/>
      <point x="374" y="-14"/>
      <point x="431" y="60"/>
      <point x="451" y="125" type="curve"/>
      <point x="432" y="132" type="line"/>
      <point x="397" y="56"/>
      <point x="339" y="29"/>
      <point x="286" y="29" type="curve" smooth="yes"/>
      <point x="210" y="29"/>
      <point x="143" y="91"/>
      <point x="143" y="263" type="curve" smooth="yes"/>
      <point x="143" y="456"/>
      <point x="220" y="511"/>
      <point x="286" y="511" type="curve" smooth="yes"/>
      <point x="324" y="511"/>
      <point x="363" y="493"/>
      <point x="376" y="469" type="curve"/>
      <point x="351" y="464"/>
      <point x="334" y="446"/>
      <point x="334" y="418" type="curve" smooth="yes"/>
      <point x="334" y="384"/>
      <point x="359" y="364"/>
      <point x="389" y="364" type="curve" smooth="yes"/>
      <point x="419" y="364"/>
      <point x="442" y="384"/>
      <point x="442" y="420" type="curve" smooth="yes"/>
      <point x="442" y="452"/>
      <point x="424" y="479"/>
      <point x="395" y="497" type="curve" smooth="yes"/>
      <point x="365" y="518"/>
      <point x="323" y="529"/>
      <point x="280" y="529" type="curve" smooth="yes"/>
    </contour>
    <contour>
      <point x="196" y="318"/>
      <point x="162" y="303"/>
      <point x="137" y="224" type="curve"/>
      <point x="140" y="206" type="line"/>
      <point x="158" y="253"/>
      <point x="194" y="263"/>
      <point x="221" y="263" type="curve" smooth="yes"/>
      <point x="279" y="263"/>
      <point x="294" y="215"/>
      <point x="344" y="215" type="curve" smooth="yes"/>
      <point x="385" y="215"/>
      <point x="422" y="246"/>
      <point x="439" y="302" type="curve"/>
      <point x="424" y="307" type="line"/>
      <point x="411" y="277"/>
      <point x="389" y="269"/>
      <point x="368" y="269" type="curve" smooth="yes"/>
      <point x="317" y="269"/>
      <point x="305" y="318"/>
      <point x="243" y="318" type="curve" smooth="yes"/>
    </contour>
  </outline>
</glyph>
<glyph name="i-cy" format="1">
  <advance width="293"/>
  <unicode hex="0456"/>
  <outline>
    <component base="dotaccent" xOffset="42"/>
    <component base="dotlessi"/>
    <contour>
      <point x="147" y="514" type="move" name="top"/>
    </contour>
  </outline>
</glyph>
<glyph name="tshe-cy" format="1">
  <advance width="590"/>
  <unicode hex="045B"/>
  <outline>
    <contour>
      <point x="15" y="628" type="line"/>
      <point x="15" y="608" type="line"/>
      <point x="369" y="608" type="line"/>
      <point x="369" y="628" type="line"/>
    </contour>
    <component base="h" xOffset="2"/>
  </outline>
</glyph>
<glyph name="breve-cy.smcp" format="1">
  <advance width="448"/>
  <outline>
    <contour>
      <point x="345" y="862"/>
      <point x="320" y="842"/>
      <point x="320" y="808" type="curve" smooth="yes"/>
      <point x="320" y="780"/>
      <point x="337" y="762"/>
      <point x="362" y="757" type="curve"/>
      <point x="331" y="728"/>
      <point x="266" y="721"/>
      <point x="224" y="721" type="curve" smooth="yes"/>
      <point x="182" y="721"/>
      <point x="117" y="728"/>
      <point x="86" y="757" type="curve"/>
      <point x="111" y="762"/>
      <point x="128" y="780"/>
      <point x="128" y="808" type="curve" smooth="yes"/>
      <point x="128" y="842"/>
      <point x="104" y="862"/>
      <point x="73" y="862" type="curve" smooth="yes"/>
      <point x="42" y="862"/>
      <point x="20" y="841"/>
      <point x="20" y="807" type="curve" smooth="yes"/>
      <point x="20" y="779"/>
      <point x="35" y="759"/>
      <point x="68" y="739" type="curve" smooth="yes"/>
      <point x="103" y="718"/>
      <point x="155" y="701"/>
      <point x="224" y="701" type="curve" smooth="yes"/>
      <point x="293" y="701"/>
      <point x="345" y="718"/>
      <point x="380" y="739" type="curve" smooth="yes"/>
      <point x="413" y="759"/>
      <point x="428" y="779"/>
      <point x="428" y="807" type="curve" smooth="yes"/>
      <point x="428" y="841"/>
      <point x="406" y="862"/>
      <point x="375" y="862" type="curve" smooth="yes"/>
    </contour>
    <contour>
      <point x="224" y="514" type="move" name="_top"/>
    </contour>
  </outline>
</glyph>
<glyph name="che-cy.smcp" format="1">
  <advance width="675"/>
  <outline>
    <contour>
      <point x="233" y="607"/>
      <point x="186" y="604"/>
      <point x="142" y="604" type="curve" smooth="yes"/>
      <point x="98" y="604"/>
      <point x="42" y="607"/>
      <point x="19" y="608" type="curve"/>
      <point x="19" y="587" type="line"/>
      <point x="74" y="587"/>
      <point x="95" y="571"/>
      <point x="95" y="515" type="curve" smooth="yes"/>
      <point x="95" y="391" type="line" smooth="yes"/>
      <point x="95" y="321"/>
      <point x="106" y="285"/>
      <point x="143" y="257" type="curve" smooth="yes"/>
      <point x="171" y="236"/>
      <point x="214" y="222"/>
      <point x="271" y="222" type="curve" smooth="yes"/>
      <point x="341" y="222"/>
      <point x="421" y="247"/>
      <point x="459" y="270" type="curve"/>
      <point x="459" y="287" type="line"/>
      <point x="423" y="266"/>
      <point x="369" y="254"/>
      <point x="303" y="254" type="curve" smooth="yes"/>
      <point x="200" y="254"/>
      <point x="188" y="306"/>
      <point x="188" y="369" type="curve" smooth="yes"/>
      <point x="188" y="515" type="line" smooth="yes"/>
      <point x="188" y="571"/>
      <point x="206" y="587"/>
      <point x="254" y="587" type="curve"/>
      <point x="254" y="608" type="line"/>
    </contour>
    <contour>
      <point x="602" y="606"/>
      <point x="552" y="605"/>
      <point x="506" y="605" type="curve" smooth="yes"/>
      <point x="454" y="605"/>
      <point x="406" y="606"/>
      <point x="378" y="608" type="curve"/>
      <point x="378" y="588" type="line"/>
      <point x="446" y="585"/>
      <point x="459" y="575"/>
      <point x="459" y="502" type="curve" smooth="yes"/>
      <point x="459" y="106" type="line" smooth="yes"/>
      <point x="459" y="33"/>
      <point x="442" y="23"/>
      <point x="358" y="20" type="curve"/>
      <point x="358" y="0" type="line"/>
      <point x="393" y="2"/>
      <point x="451" y="3"/>
      <point x="505" y="3" type="curve" smooth="yes"/>
      <point x="557" y="3"/>
      <point x="605" y="2"/>
      <point x="633" y="0" type="curve"/>
      <point x="633" y="20" type="line"/>
      <point x="565" y="23"/>
      <point x="552" y="33"/>
      <point x="552" y="106" type="curve" smooth="yes"/>
      <point x="552" y="502" type="line" smooth="yes"/>
      <point x="552" y="575"/>
      <point x="565" y="585"/>
      <point x="633" y="588" type="curve"/>
      <point x="633" y="608" type="line"/>
    </contour>
  </outline>
</glyph>
<glyph name="dzhe-cy.smcp" format="1">
  <advance width="737"/>
  <outline>
    <contour>
      <point x="667" y="606"/>
      <point x="619" y="605"/>
      <point x="567" y="605" type="curve" smooth="yes"/>
      <point x="521" y="605"/>
      <point x="471" y="606"/>
      <point x="440" y="608" type="curve"/>
      <point x="440" y="588" type="line"/>
      <point x="508" y="585"/>
      <point x="521" y="575"/>
      <point x="521" y="502" type="curve" smooth="yes"/>
      <point x="521" y="106" type="line" smooth="yes"/>
      <point x="521" y="33"/>
      <point x="508" y="20"/>
      <point x="440" y="20" type="curve" smooth="yes"/>
      <point x="297" y="20" type="line" smooth="yes"/>
      <point x="229" y="20"/>
      <point x="216" y="33"/>
      <point x="216" y="106" type="curve" smooth="yes"/>
      <point x="216" y="502" type="line" smooth="yes"/>
      <point x="216" y="575"/>
      <point x="229" y="585"/>
      <point x="297" y="588" type="curve"/>
      <point x="297" y="608" type="line"/>
      <point x="266" y="606"/>
      <point x="216" y="605"/>
      <point x="170" y="605" type="curve" smooth="yes"/>
      <point x="118" y="605"/>
      <point x="70" y="606"/>
      <point x="42" y="608" type="curve"/>
      <point x="42" y="588" type="line"/>
      <point x="110" y="585"/>
      <point x="123" y="575"/>
      <point x="123" y="502" type="curve" smooth="yes"/>
      <point x="123" y="106" type="line" smooth="yes"/>
      <point x="123" y="33"/>
      <point x="110" y="23"/>
      <point x="42" y="20" type="curve"/>
      <point x="42" y="0" type="line"/>
      <point x="70" y="2"/>
      <point x="118" y="3"/>
      <point x="170" y="3" type="curve" smooth="yes"/>
      <point x="244" y="3"/>
      <point x="325" y="0"/>
      <point x="370" y="0" type="curve" smooth="yes"/>
      <point x="415" y="0"/>
      <point x="493" y="3"/>
      <point x="567" y="3" type="curve" smooth="yes"/>
      <point x="619" y="3"/>
      <point x="667" y="2"/>
      <point x="695" y="0" type="curve"/>
      <point x="695" y="20" type="line"/>
      <point x="627" y="23"/>
      <point x="614" y="33"/>
      <point x="614" y="106" type="curve" smooth="yes"/>
      <point x="614" y="502" type="line" smooth="yes"/>
      <point x="614" y="575"/>
      <point x="627" y="585"/>
      <point x="695" y="588" type="curve"/>
      <point x="695" y="608" type="line"/>
    </contour>
    <contour>
      <point x="245" y="3" type="line"/>
      <point x="335" y="3"/>
      <point x="348" y="-42"/>
      <point x="359" y="-160" type="curve"/>
      <point x="382" y="-160" type="line"/>
      <point x="393" y="-42"/>
      <point x="406" y="3"/>
      <point x="496" y="3" type="curve"/>
      <point x="370" y="18" type="line"/>
    </contour>
  </outline>
</glyph>
<glyph name="el-cy.smcp" format="1">
  <advance width="672"/>
  <outline>
    <contour>
      <point x="602" y="606"/>
      <point x="550" y="605"/>
      <point x="511" y="605" type="curve" smooth="yes"/>
      <point x="458" y="605"/>
      <point x="425" y="608"/>
      <point x="378" y="608" type="curve" smooth="yes"/>
      <point x="352" y="608"/>
      <point x="327" y="605"/>
      <point x="300" y="605" type="curve" smooth="yes"/>
      <point x="268" y="605"/>
      <point x="225" y="606"/>
      <point x="197" y="608" type="curve"/>
      <point x="197" y="588" type="line"/>
      <point x="269" y="585"/>
      <point x="283" y="572"/>
      <point x="278" y="502" type="curve" smooth="yes"/>
      <point x="262" y="276"/>
      <point x="246" y="5"/>
      <point x="92" y="5" type="curve" smooth="yes"/>
      <point x="87" y="5"/>
      <point x="77" y="5"/>
      <point x="68" y="6" type="curve"/>
      <point x="94" y="21"/>
      <point x="111" y="39"/>
      <point x="111" y="65" type="curve" smooth="yes"/>
      <point x="111" y="95"/>
      <point x="89" y="111"/>
      <point x="60" y="111" type="curve" smooth="yes"/>
      <point x="26" y="111"/>
      <point x="1" y="89"/>
      <point x="1" y="54" type="curve" smooth="yes"/>
      <point x="1" y="4"/>
      <point x="48" y="-14"/>
      <point x="92" y="-14" type="curve" smooth="yes"/>
      <point x="284" y="-14"/>
      <point x="280" y="307"/>
      <point x="301" y="502" type="curve" smooth="yes"/>
      <point x="307" y="573"/>
      <point x="310" y="588"/>
      <point x="372" y="588" type="curve" smooth="yes"/>
      <point x="385" y="588" type="line" smooth="yes"/>
      <point x="445" y="588"/>
      <point x="456" y="576"/>
      <point x="456" y="502" type="curve" smooth="yes"/>
      <point x="456" y="106" type="line" smooth="yes"/>
      <point x="456" y="33"/>
      <point x="443" y="23"/>
      <point x="375" y="20" type="curve"/>
      <point x="375" y="0" type="line"/>
      <point x="406" y="2"/>
      <point x="455" y="3"/>
      <point x="504" y="3" type="curve" smooth="yes"/>
      <point x="553" y="3"/>
      <point x="602" y="2"/>
      <point x="630" y="0" type="curve"/>
      <point x="630" y="20" type="line"/>
      <point x="562" y="23"/>
      <point x="549" y="33"/>
      <point x="549" y="106" type="curve" smooth="yes"/>
      <point x="549" y="502" type="line" smooth="yes"/>
      <point x="549" y="575"/>
      <point x="562" y="585"/>
      <point x="630" y="588" type="curve"/>
      <point x="630" y="608" type="line"/>
    </contour>
  </outline>
</glyph>
<glyph name="ereversed-cy.smcp" format="1">
  <advance width="649"/>
  <outline>
    <contour>
      <point x="226" y="622"/>
      <point x="184" y="591"/>
      <point x="144" y="557" type="curve" smooth="yes"/>
      <point x="118" y="535"/>
      <point x="104" y="551"/>
      <point x="99" y="608" type="curve"/>
      <point x="76" y="608" type="line"/>
      <point x="79" y="563"/>
      <point x="80" y="504"/>
      <point x="80" y="398" type="curve"/>
      <point x="103" y="398" type="line"/>
      <point x="117" y="471"/>
      <point x="128" y="493"/>
      <point x="153" y="526" type="curve" smooth="yes"/>
      <point x="191" y="576"/>
      <point x="245" y="602"/>
      <point x="302" y="602" type="curve" smooth="yes"/>
      <point x="420" y="602"/>
      <point x="496" y="489"/>
      <point x="496" y="302" type="curve" smooth="yes"/>
      <point x="496" y="109"/>
      <point x="407" y="6"/>
      <point x="295" y="6" type="curve" smooth="yes"/>
      <point x="238" y="6"/>
      <point x="180" y="31"/>
      <point x="142" y="82" type="curve" smooth="yes"/>
      <point x="116" y="117"/>
      <point x="106" y="149"/>
      <point x="96" y="220" type="curve"/>
      <point x="73" y="220" type="line"/>
      <point x="73" y="109"/>
      <point x="72" y="47"/>
      <point x="69" y="0" type="curve"/>
      <point x="92" y="0" type="line"/>
      <point x="97" y="57"/>
      <point x="110" y="73"/>
      <point x="137" y="51" type="curve" smooth="yes"/>
      <point x="179" y="16"/>
      <point x="223" y="-14"/>
      <point x="299" y="-14" type="curve" smooth="yes"/>
      <point x="477" y="-14"/>
      <point x="596" y="99"/>
      <point x="596" y="298" type="curve" smooth="yes"/>
      <point x="596" y="492"/>
      <point x="472" y="622"/>
      <point x="298" y="622" type="curve" smooth="yes"/>
    </contour>
    <contour>
      <point x="150" y="369"/>
      <point x="89" y="335"/>
      <point x="69" y="268" type="curve"/>
      <point x="85" y="261" type="line"/>
      <point x="100" y="297"/>
      <point x="138" y="311"/>
      <point x="172" y="311" type="curve" smooth="yes"/>
      <point x="245" y="311"/>
      <point x="284" y="249"/>
      <point x="364" y="249" type="curve" smooth="yes"/>
      <point x="423" y="249"/>
      <point x="480" y="282"/>
      <point x="501" y="350" type="curve"/>
      <point x="494" y="355" type="line"/>
      <point x="476" y="319"/>
      <point x="442" y="307"/>
      <point x="408" y="307" type="curve" smooth="yes"/>
      <point x="332" y="307"/>
      <point x="299" y="369"/>
      <point x="213" y="369" type="curve"/>
    </contour>
  </outline>
</glyph>
<glyph name="ka-cy.smcp" format="1">
  <advance width="662"/>
  <outline>
    <contour>
      <point x="177" y="307" type="line"/>
      <point x="262" y="307" type="line" smooth="yes"/>
      <point x="364" y="307"/>
      <point x="382" y="264"/>
      <point x="399" y="198" type="curve" smooth="yes"/>
      <point x="426" y="94" type="line" smooth="yes"/>
      <point x="450" y="0"/>
      <point x="486" y="-14"/>
      <point x="533" y="-14" type="curve" smooth="yes"/>
      <point x="589" y="-14"/>
      <point x="614" y="12"/>
      <point x="640" y="50" type="curve"/>
      <point x="625" y="61" type="line"/>
      <point x="607" y="38"/>
      <point x="595" y="24"/>
      <point x="572" y="23" type="curve" smooth="yes"/>
      <point x="543" y="22"/>
      <point x="536" y="48"/>
      <point x="521" y="105" type="curve" smooth="yes"/>
      <point x="493" y="211" type="line" smooth="yes"/>
      <point x="476" y="275"/>
      <point x="427" y="308"/>
      <point x="337" y="321" type="curve" smooth="yes"/>
      <point x="300" y="326"/>
      <point x="273" y="327"/>
      <point x="177" y="326" type="curve"/>
    </contour>
    <contour>
      <point x="449" y="622"/>
      <point x="426" y="554"/>
      <point x="409" y="494" type="curve" smooth="yes"/>
      <point x="373" y="364"/>
      <point x="343" y="326"/>
      <point x="192" y="326" type="curve"/>
      <point x="192" y="311" type="line"/>
      <point x="339" y="312"/>
      <point x="385" y="338"/>
      <point x="423" y="472" type="curve" smooth="yes"/>
      <point x="440" y="534"/>
      <point x="452" y="563"/>
      <point x="472" y="577" type="curve" smooth="yes"/>
      <point x="477" y="581"/>
      <point x="483" y="584"/>
      <point x="490" y="586" type="curve"/>
      <point x="490" y="583"/>
      <point x="489" y="578"/>
      <point x="489" y="575" type="curve" smooth="yes"/>
      <point x="488" y="537"/>
      <point x="507" y="507"/>
      <point x="547" y="507" type="curve" smooth="yes"/>
      <point x="582" y="507"/>
      <point x="605" y="530"/>
      <point x="605" y="564" type="curve" smooth="yes"/>
      <point x="605" y="595"/>
      <point x="586" y="622"/>
      <point x="533" y="622" type="curve" smooth="yes"/>
    </contour>
    <component base="i.smcp"/>
    <contour>
      <point x="331" y="514" type="move" name="top"/>
    </contour>
  </outline>
</glyph>
<glyph name="lje-cy.smcp" format="1">
  <advance width="902"/>
  <outline>
    <contour>
      <point x="530" y="332"/>
      <point x="530" y="312"/>
      <point x="530" y="312" type="curve"/>
      <point x="616" y="312" type="line" smooth="yes"/>
      <point x="742" y="312"/>
      <point x="769" y="247"/>
      <point x="769" y="166" type="curve" smooth="yes"/>
      <point x="769" y="73"/>
      <point x="727" y="20"/>
      <point x="613" y="20" type="curve" smooth="yes"/>
      <point x="607" y="20"/>
      <point x="597" y="13"/>
      <point x="595" y="6" type="curve"/>
      <point x="601" y="2"/>
      <point x="613" y="0"/>
      <point x="638" y="0" type="curve" smooth="yes"/>
      <point x="788" y="0"/>
      <point x="869" y="67"/>
      <point x="869" y="169" type="curve" smooth="yes"/>
      <point x="869" y="248"/>
      <point x="821" y="329"/>
      <point x="626" y="331" type="curve" smooth="yes"/>
      <point x="530" y="332" type="line"/>
    </contour>
    <component base="el-cy.smcp"/>
  </outline>
</glyph>
<glyph name="sha-cy.smcp" format="1">
  <advance width="957"/>
  <outline>
    <contour>
      <point x="887" y="606"/>
      <point x="839" y="605"/>
      <point x="787" y="605" type="curve" smooth="yes"/>
      <point x="745" y="605"/>
      <point x="699" y="606"/>
      <point x="670" y="608" type="curve"/>
      <point x="670" y="588" type="line"/>
      <point x="731" y="585"/>
      <point x="741" y="575"/>
      <point x="741" y="502" type="curve" smooth="yes"/>
      <point x="741" y="106" type="line" smooth="yes"/>
      <point x="741" y="33"/>
      <point x="728" y="20"/>
      <point x="660" y="20" type="curve" smooth="yes"/>
      <point x="606" y="20" type="line" smooth="yes"/>
      <point x="538" y="20"/>
      <point x="525" y="33"/>
      <point x="525" y="106" type="curve" smooth="yes"/>
      <point x="525" y="502" type="line" smooth="yes"/>
      <point x="525" y="575"/>
      <point x="535" y="585"/>
      <point x="596" y="588" type="curve"/>
      <point x="596" y="608" type="line"/>
      <point x="570" y="606"/>
      <point x="526" y="605"/>
      <point x="478" y="605" type="curve" smooth="yes"/>
      <point x="436" y="605"/>
      <point x="390" y="606"/>
      <point x="361" y="608" type="curve"/>
      <point x="361" y="588" type="line"/>
      <point x="422" y="585"/>
      <point x="432" y="575"/>
      <point x="432" y="502" type="curve" smooth="yes"/>
      <point x="432" y="106" type="line" smooth="yes"/>
      <point x="432" y="33"/>
      <point x="419" y="20"/>
      <point x="351" y="20" type="curve" smooth="yes"/>
      <point x="297" y="20" type="line" smooth="yes"/>
      <point x="229" y="20"/>
      <point x="216" y="33"/>
      <point x="216" y="106" type="curve" smooth="yes"/>
      <point x="216" y="502" type="line" smooth="yes"/>
      <point x="216" y="575"/>
      <point x="227" y="585"/>
      <point x="287" y="588" type="curve"/>
      <point x="287" y="608" type="line"/>
      <point x="258" y="606"/>
      <point x="212" y="605"/>
      <point x="170" y="605" type="curve" smooth="yes"/>
      <point x="118" y="605"/>
      <point x="70" y="606"/>
      <point x="42" y="608" type="curve"/>
      <point x="42" y="588" type="line"/>
      <point x="110" y="585"/>
      <point x="123" y="575"/>
      <point x="123" y="502" type="curve" smooth="yes"/>
      <point x="123" y="106" type="line" smooth="yes"/>
      <point x="123" y="33"/>
      <point x="110" y="23"/>
      <point x="42" y="20" type="curve"/>
      <point x="42" y="0" type="line"/>
      <point x="70" y="2"/>
      <point x="118" y="3"/>
      <point x="170" y="3" type="curve" smooth="yes"/>
      <point x="220" y="3"/>
      <point x="274" y="0"/>
      <point x="322" y="0" type="curve" smooth="yes"/>
      <point x="386" y="0"/>
      <point x="442" y="3"/>
      <point x="480" y="3" type="curve" smooth="yes"/>
      <point x="517" y="3"/>
      <point x="571" y="0"/>
      <point x="634" y="0" type="curve" smooth="yes"/>
      <point x="680" y="0"/>
      <point x="736" y="3"/>
      <point x="787" y="3" type="curve" smooth="yes"/>
      <point x="839" y="3"/>
      <point x="887" y="2"/>
      <point x="915" y="0" type="curve"/>
      <point x="915" y="20" type="line"/>
      <point x="847" y="23"/>
      <point x="834" y="33"/>
      <point x="834" y="106" type="curve" smooth="yes"/>
      <point x="834" y="502" type="line" smooth="yes"/>
      <point x="834" y="575"/>
      <point x="847" y="585"/>
      <point x="915" y="588" type="curve"/>
      <point x="915" y="608" type="line"/>
    </contour>
  </outline>
</glyph>
<glyph name="shcha-cy.smcp" format="1">
  <advance width="967"/>
  <outline>
    <contour>
      <point x="887" y="606"/>
      <point x="839" y="605"/>
      <point x="787" y="605" type="curve" smooth="yes"/>
      <point x="745" y="605"/>
      <point x="699" y="606"/>
      <point x="670" y="608" type="curve"/>
      <point x="670" y="588" type="line"/>
      <point x="731" y="585"/>
      <point x="741" y="575"/>
      <point x="741" y="502" type="curve" smooth="yes"/>
      <point x="741" y="106" type="line" smooth="yes"/>
      <point x="741" y="33"/>
      <point x="728" y="20"/>
      <point x="660" y="20" type="curve" smooth="yes"/>
      <point x="606" y="20" type="line" smooth="yes"/>
      <point x="538" y="20"/>
      <point x="525" y="33"/>
      <point x="525" y="106" type="curve" smooth="yes"/>
      <point x="525" y="502" type="line" smooth="yes"/>
      <point x="525" y="575"/>
      <point x="535" y="585"/>
      <point x="596" y="588" type="curve"/>
      <point x="596" y="608" type="line"/>
      <point x="570" y="606"/>
      <point x="526" y="605"/>
      <point x="478" y="605" type="curve" smooth="yes"/>
      <point x="436" y="605"/>
      <point x="390" y="606"/>
      <point x="361" y="608" type="curve"/>
      <point x="361" y="588" type="line"/>
      <point x="422" y="585"/>
      <point x="432" y="575"/>
      <point x="432" y="502" type="curve" smooth="yes"/>
      <point x="432" y="106" type="line" smooth="yes"/>
      <point x="432" y="33"/>
      <point x="419" y="20"/>
      <point x="351" y="20" type="curve" smooth="yes"/>
      <point x="297" y="20" type="line" smooth="yes"/>
      <point x="229" y="20"/>
      <point x="216" y="33"/>
      <point x="216" y="106" type="curve" smooth="yes"/>
      <point x="216" y="502" type="line" smooth="yes"/>
      <point x="216" y="575"/>
      <point x="227" y="585"/>
      <point x="287" y="588" type="curve"/>
      <point x="287" y="608" type="line"/>
      <point x="258" y="606"/>
      <point x="212" y="605"/>
      <point x="170" y="605" type="curve" smooth="yes"/>
      <point x="118" y="605"/>
      <point x="70" y="606"/>
      <point x="42" y="608" type="curve"/>
      <point x="42" y="588" type="line"/>
      <point x="110" y="585"/>
      <point x="123" y="575"/>
      <point x="123" y="502" type="curve" smooth="yes"/>
      <point x="123" y="106" type="line" smooth="yes"/>
      <point x="123" y="33"/>
      <point x="110" y="23"/>
      <point x="42" y="20" type="curve"/>
      <point x="42" y="0" type="line"/>
      <point x="70" y="2"/>
      <point x="118" y="3"/>
      <point x="170" y="3" type="curve" smooth="yes"/>
      <point x="220" y="3"/>
      <point x="274" y="0"/>
      <point x="322" y="0" type="curve" smooth="yes"/>
      <point x="386" y="0"/>
      <point x="442" y="3"/>
      <point x="480" y="3" type="curve" smooth="yes"/>
      <point x="517" y="3"/>
      <point x="571" y="0"/>
      <point x="634" y="0" type="curve" smooth="yes"/>
      <point x="680" y="0"/>
      <point x="744" y="0"/>
      <point x="785" y="0" type="curve" smooth="yes"/>
      <point x="891" y="0"/>
      <point x="906" y="-42"/>
      <point x="919" y="-160" type="curve"/>
      <point x="942" y="-160" type="line"/>
      <point x="940" y="-145"/>
      <point x="939" y="-122"/>
      <point x="939" y="-98" type="curve" smooth="yes"/>
      <point x="939" y="-75"/>
      <point x="941" y="-27"/>
      <point x="946" y="20" type="curve"/>
      <point x="915" y="20" type="line" smooth="yes"/>
      <point x="847" y="20"/>
      <point x="834" y="33"/>
      <point x="834" y="106" type="curve" smooth="yes"/>
      <point x="834" y="502" type="line" smooth="yes"/>
      <point x="834" y="575"/>
      <point x="847" y="585"/>
      <point x="915" y="588" type="curve"/>
      <point x="915" y="608" type="line"/>
    </contour>
  </outline>
</glyph>
<glyph name="tshe-cy.smcp" format="1">
  <advance width="747"/>
  <outline>
    <contour>
      <point x="514" y="605"/>
      <point x="398" y="605"/>
      <point x="316" y="605" type="curve" smooth="yes"/>
      <point x="234" y="605"/>
      <point x="117" y="605"/>
      <point x="34" y="608" type="curve"/>
      <point x="39" y="561"/>
      <point x="41" y="513"/>
      <point x="41" y="490" type="curve" smooth="yes"/>
      <point x="41" y="458"/>
      <point x="40" y="429"/>
      <point x="38" y="408" type="curve"/>
      <point x="61" y="408" type="line"/>
      <point x="72" y="540"/>
      <point x="107" y="585"/>
      <point x="175" y="585" type="curve" smooth="yes"/>
      <point x="269" y="585" type="line"/>
      <point x="269" y="116" type="line" smooth="yes"/>
      <point x="269" y="35"/>
      <point x="252" y="23"/>
      <point x="168" y="20" type="curve"/>
      <point x="168" y="0" type="line"/>
      <point x="200" y="2"/>
      <point x="256" y="3"/>
      <point x="316" y="3" type="curve" smooth="yes"/>
      <point x="362" y="3"/>
      <point x="412" y="2"/>
      <point x="443" y="0" type="curve"/>
      <point x="443" y="20" type="line"/>
      <point x="375" y="23"/>
      <point x="362" y="35"/>
      <point x="362" y="116" type="curve" smooth="yes"/>
      <point x="362" y="585" type="line"/>
      <point x="456" y="585" type="line" smooth="yes"/>
      <point x="524" y="585"/>
      <point x="559" y="540"/>
      <point x="570" y="408" type="curve"/>
      <point x="593" y="408" type="line"/>
      <point x="591" y="428"/>
      <point x="590" y="458"/>
      <point x="590" y="490" type="curve" smooth="yes"/>
      <point x="590" y="513"/>
      <point x="592" y="561"/>
      <point x="597" y="608" type="curve"/>
    </contour>
    <contour>
      <point x="461" y="338"/>
      <point x="396" y="310"/>
      <point x="362" y="268" type="curve"/>
      <point x="362" y="247" type="line"/>
      <point x="391" y="282"/>
      <point x="436" y="306"/>
      <point x="493" y="306" type="curve" smooth="yes"/>
      <point x="569" y="306"/>
      <point x="573" y="258"/>
      <point x="573" y="191" type="curve" smooth="yes"/>
      <point x="573" y="93" type="line" smooth="yes"/>
      <point x="573" y="37"/>
      <point x="558" y="21"/>
      <point x="517" y="21" type="curve"/>
      <point x="517" y="0" type="line"/>
      <point x="536" y="1"/>
      <point x="579" y="4"/>
      <point x="619" y="4" type="curve" smooth="yes"/>
      <point x="663" y="4"/>
      <point x="716" y="1"/>
      <point x="739" y="0" type="curve"/>
      <point x="739" y="21" type="line"/>
      <point x="684" y="21"/>
      <point x="663" y="37"/>
      <point x="663" y="93" type="curve" smooth="yes"/>
      <point x="663" y="169" type="line" smooth="yes"/>
      <point x="663" y="232"/>
      <point x="655" y="273"/>
      <point x="630" y="300" type="curve" smooth="yes"/>
      <point x="609" y="323"/>
      <point x="575" y="338"/>
      <point x="522" y="338" type="curve" smooth="yes"/>
    </contour>
  </outline>
</glyph>
<glyph name="zhe-cy.smcp" format="1">
  <advance width="984"/>
  <outline>
    <contour>
      <point x="499" y="307" type="line"/>
      <point x="584" y="307" type="line" smooth="yes"/>
      <point x="686" y="307"/>
      <point x="702" y="263"/>
      <point x="721" y="198" type="curve" smooth="yes"/>
      <point x="748" y="94" type="line" smooth="yes"/>
      <point x="772" y="0"/>
      <point x="808" y="-14"/>
      <point x="855" y="-14" type="curve" smooth="yes"/>
      <point x="911" y="-14"/>
      <point x="936" y="12"/>
      <point x="962" y="50" type="curve"/>
      <point x="947" y="61" type="line"/>
      <point x="929" y="38"/>
      <point x="917" y="24"/>
      <point x="894" y="23" type="curve" smooth="yes"/>
      <point x="865" y="22"/>
      <point x="858" y="48"/>
      <point x="843" y="105" type="curve" smooth="yes"/>
      <point x="815" y="211" type="line" smooth="yes"/>
      <point x="797" y="275"/>
      <point x="749" y="308"/>
      <point x="659" y="321" type="curve" smooth="yes"/>
      <point x="622" y="326"/>
      <point x="595" y="327"/>
      <point x="499" y="326" type="curve"/>
    </contour>
    <contour>
      <point x="383" y="327"/>
      <point x="356" y="326"/>
      <point x="319" y="321" type="curve" smooth="yes"/>
      <point x="235" y="308"/>
      <point x="188" y="275"/>
      <point x="172" y="211" type="curve" smooth="yes"/>
      <point x="143" y="105" type="line" smooth="yes"/>
      <point x="128" y="48"/>
      <point x="120" y="22"/>
      <point x="91" y="23" type="curve" smooth="yes"/>
      <point x="68" y="24"/>
      <point x="56" y="38"/>
      <point x="38" y="61" type="curve"/>
      <point x="23" y="50" type="line"/>
      <point x="47" y="12"/>
      <point x="72" y="-14"/>
      <point x="123" y="-14" type="curve" smooth="yes"/>
      <point x="170" y="-14"/>
      <point x="206" y="0"/>
      <point x="230" y="94" type="curve" smooth="yes"/>
      <point x="257" y="198" type="line" smooth="yes"/>
      <point x="274" y="264"/>
      <point x="292" y="307"/>
      <point x="394" y="307" type="curve" smooth="yes"/>
      <point x="479" y="307" type="line"/>
      <point x="479" y="326" type="line"/>
    </contour>
    <contour>
      <point x="75" y="622"/>
      <point x="56" y="595"/>
      <point x="56" y="564" type="curve" smooth="yes"/>
      <point x="56" y="530"/>
      <point x="79" y="507"/>
      <point x="114" y="507" type="curve" smooth="yes"/>
      <point x="154" y="507"/>
      <point x="173" y="537"/>
      <point x="172" y="575" type="curve" smooth="yes"/>
      <point x="172" y="578"/>
      <point x="171" y="583"/>
      <point x="171" y="586" type="curve"/>
      <point x="178" y="584"/>
      <point x="184" y="581"/>
      <point x="189" y="577" type="curve" smooth="yes"/>
      <point x="209" y="563"/>
      <point x="221" y="534"/>
      <point x="238" y="472" type="curve" smooth="yes"/>
      <point x="276" y="338"/>
      <point x="322" y="312"/>
      <point x="469" y="311" type="curve"/>
      <point x="469" y="326" type="line"/>
      <point x="318" y="326"/>
      <point x="288" y="364"/>
      <point x="252" y="494" type="curve" smooth="yes"/>
      <point x="235" y="554"/>
      <point x="212" y="622"/>
      <point x="128" y="622" type="curve" smooth="yes"/>
    </contour>
    <contour>
      <point x="771" y="622"/>
      <point x="748" y="554"/>
      <point x="731" y="494" type="curve" smooth="yes"/>
      <point x="695" y="364"/>
      <point x="665" y="326"/>
      <point x="514" y="326" type="curve"/>
      <point x="514" y="311" type="line"/>
      <point x="661" y="312"/>
      <point x="707" y="338"/>
      <point x="745" y="472" type="curve" smooth="yes"/>
      <point x="762" y="534"/>
      <point x="774" y="563"/>
      <point x="794" y="577" type="curve" smooth="yes"/>
      <point x="799" y="581"/>
      <point x="805" y="584"/>
      <point x="812" y="586" type="curve"/>
      <point x="812" y="583"/>
      <point x="811" y="578"/>
      <point x="811" y="575" type="curve" smooth="yes"/>
      <point x="810" y="537"/>
      <point x="829" y="507"/>
      <point x="869" y="507" type="curve" smooth="yes"/>
      <point x="904" y="507"/>
      <point x="927" y="530"/>
      <point x="927" y="564" type="curve" smooth="yes"/>
      <point x="927" y="595"/>
      <point x="908" y="622"/>
      <point x="855" y="622" type="curve" smooth="yes"/>
    </contour>
    <component base="i.smcp" xOffset="323"/>
  </outline>
</glyph>
